HIERARCHY
ROOT Hips
{
	OFFSET -219.769897 87.409019 450.503113
	CHANNELS 6 Xposition Yposition Zposition Zrotation Yrotation Xrotation 
	JOINT LeftUpLeg
	{
		OFFSET 0.103459 1.857837 10.548508
		CHANNELS 3 Zrotation Yrotation Xrotation
		JOINT LeftLeg
		{
			OFFSET 43.500008 -0.000038 0.000008
			CHANNELS 3 Zrotation Yrotation Xrotation
			JOINT LeftFoot
			{
				OFFSET 42.372196 0.000023 -0.000010
				CHANNELS 3 Zrotation Yrotation Xrotation
				JOINT LeftToe
				{
					OFFSET 17.300007 0.000003 -0.000004
					CHANNELS 3 Zrotation Yrotation Xrotation
					End Site
					{
						OFFSET 0.000000 0.000000 0.000000
					}
				}
			}
		}
	}
	JOINT RightUpLeg
	{
		OFFSET 0.103459 1.857834 -10.548512
		CHANNELS 3 Zrotation Yrotation Xrotation
		JOINT RightLeg
		{
			OFFSET 43.500050 -0.000034 0.000002
			CHANNELS 3 Zrotation Yrotation Xrotation
			JOINT RightFoot
			{
				OFFSET 42.372257 0.000015 0.000013
				CHANNELS 3 Zrotation Yrotation Xrotation
				JOINT RightToe
				{
					OFFSET 17.299990 -0.000006 0.000004
					CHANNELS 3 Zrotation Yrotation Xrotation
					End Site
					{
						OFFSET 0.000000 0.000000 0.000000
					}
				}
			}
		}
	}
	JOINT Spine
	{
		OFFSET 6.901970 -2.603734 0.000004
		CHANNELS 3 Zrotation Yrotation Xrotation
		JOINT Spine1
		{
			OFFSET 12.588094 0.000009 -0.000000
			CHANNELS 3 Zrotation Yrotation Xrotation
			JOINT Spine2
			{
				OFFSET 12.343201 -0.000005 -0.000001
				CHANNELS 3 Zrotation Yrotation Xrotation
				JOINT Neck
				{
					OFFSET 25.832905 0.000011 0.000002
					CHANNELS 3 Zrotation Yrotation Xrotation
					JOINT Head
					{
						OFFSET 11.766597 0.000002 0.000004
						CHANNELS 3 Zrotation Yrotation Xrotation
						End Site
						{
							OFFSET 0.000000 0.000000 0.000000
						}
					}
				}
				JOINT LeftShoulder
				{
					OFFSET 19.745907 -1.480370 6.000103
					CHANNELS 3 Zrotation Yrotation Xrotation
					JOINT LeftArm
					{
						OFFSET 11.284125 -0.000017 -0.000018
						CHANNELS 3 Zrotation Yrotation Xrotation
						JOINT LeftForeArm
						{
							OFFSET 33.000053 0.000005 0.000034
							CHANNELS 3 Zrotation Yrotation Xrotation
							JOINT LeftHand
							{
								OFFSET 25.200001 0.000028 -0.000003
								CHANNELS 3 Zrotation Yrotation Xrotation
								End Site
								{
									OFFSET 0.000000 0.000000 0.000000
								}
							}
						}
					}
				}
				JOINT RightShoulder
				{
					OFFSET 19.746109 -1.480360 -6.000067
					CHANNELS 3 Zrotation Yrotation Xrotation
					JOINT RightArm
					{
						OFFSET 11.284139 0.000001 0.000006
						CHANNELS 3 Zrotation Yrotation Xrotation
						JOINT RightForeArm
						{
							OFFSET 33.000118 0.000020 0.000005
							CHANNELS 3 Zrotation Yrotation Xrotation
							JOINT RightHand
							{
								OFFSET 25.199760 0.000119 0.000422
								CHANNELS 3 Zrotation Yrotation Xrotation
								End Site
								{
									OFFSET 0.000000 0.000000 0.000000
								}
							}
						}
					}
				}
			}
		}
	}
}
MOTION
Frames: 14
Frame Time: 0.033333
-219.769897 87.409019 450.503113 87.754414 -0.060464 75.985923 -174.794813 -5.959693 168.266109 -37.289291 5.040480 -0.179980 92.160501 -1.218892 -9.027344 21.454550 0.003080 0.000000 154.306855 -5.557999 -173.523360 -40.915087 -6.970547 7.792240 85.033410 -4.339581 4.541715 21.454562 -0.003100 -0.000015 7.127693 1.708069 -1.647598 4.195401 3.474065 -3.234284 3.877235 3.454619 -3.255183 12.088261 -6.303389 9.495260 10.684585 -11.355926 8.785836 -170.294402 -75.409694 -11.341064 -47.493673 50.276227 3.583783 -30.775722 -10.712275 0.967614 7.848111 -10.282436 35.506342 -157.949791 72.015220 24.034256 9.024735 -54.106549 -47.079534 -22.318108 11.124863 -0.880511 11.437399 -1.448878 -10.264031 
-220.713196 88.211472 452.046387 87.366930 -0.507426 75.646415 -179.971796 -7.255910 169.216461 -46.934297 5.672327 -0.499609 84.577502 -1.160845 -6.705557 21.454551 0.003098 0.000001 156.749754 -6.981506 -174.432759 -37.821490 -7.161610 8.196339 84.686580 -4.571564 4.658083 21.454558 -0.003104 -0.000017 7.186954 1.844486 -1.535075 4.314282 3.744288 -3.002534 3.995916 3.726237 -3.025099 12.268937 -6.006492 9.284392 10.883201 -11.391098 8.665511 -170.028912 -75.580087 -11.613535 -45.033056 51.691445 5.152420 -25.135687 -8.864495 0.748660 10.395968 -8.305351 33.144883 -158.190077 72.148490 23.784621 7.861101 -54.164110 -45.782642 -23.015784 11.453863 -0.911301 11.459255 -1.408428 -10.131386 
-221.586502 89.087997 453.792694 87.326987 -0.916212 75.309181 173.713581 -8.486303 169.650575 -57.806760 5.730655 -1.183332 77.714657 -0.116065 -2.966530 21.454551 0.003094 -0.000005 159.421833 -7.443683 -174.293969 -34.355957 -7.181084 7.733237 84.341566 -4.251545 4.572919 21.454555 -0.003111 -0.000017 7.229455 1.933328 -1.380218 4.402648 3.917198 -2.688091 4.084126 3.901030 -2.711702 12.073672 -5.869347 9.079573 10.658542 -11.473178 8.534133 -168.905701 -75.697907 -12.763825 -41.231356 53.206323 7.341806 -21.883120 -7.410396 0.607350 12.755108 -4.322963 34.934358 -158.200924 72.975701 23.759496 7.348038 -54.354318 -45.217184 -25.334589 12.216987 -0.994983 11.424917 -1.940933 -10.746704 
-222.423599 89.862869 455.663696 87.477354 -1.106544 74.740192 167.632404 -9.255708 169.910573 -67.223125 5.238310 -2.861501 74.134013 1.447078 -1.391223 21.454555 0.003085 -0.000001 162.208564 -7.441695 -173.711259 -31.054500 -7.090913 6.785974 84.160887 -3.658715 4.227382 21.454558 -0.003110 -0.000017 7.329547 1.949287 -1.111921 4.612011 3.940874 -2.147164 4.293333 3.927976 -2.170941 11.554961 -5.609920 8.827996 10.108448 -11.691759 8.432868 -168.700318 -75.610317 -12.974079 -36.004803 54.257271 11.767464 -20.647209 -6.773310 0.550001 14.779283 -0.097737 38.037265 -158.317979 73.521420 23.630069 6.536025 -53.649251 -44.724775 -28.844804 12.888299 -1.098327 11.182648 -2.092068 -11.750260 
-223.139603 90.325233 457.532898 87.553156 -1.404368 73.818765 162.232893 -9.892187 169.347000 -73.186556 4.616995 -4.787124 75.641114 2.327393 -3.120137 21.454550 0.003091 -0.000003 164.464385 -7.519895 -173.406468 -28.597819 -6.974447 5.824153 84.348608 -3.046518 3.985701 21.454557 -0.003101 -0.000016 7.410107 1.936182 -0.760396 4.785587 3.901841 -1.441495 4.466796 3.893212 -1.465060 11.063651 -5.207906 8.663830 9.525051 -12.125247 8.503650 -168.337293 -75.326468 -13.345542 -29.923981 54.842037 17.297761 -20.231645 -6.325661 0.515464 15.619162 2.458170 40.871470 -158.388194 73.494604 23.558432 4.738798 -51.977757 -44.178087 -32.461437 13.608567 -1.216294 10.642418 -2.002089 -12.743406 
-223.752396 90.727661 459.605591 88.042778 -1.602436 72.606250 157.502564 -9.825202 167.981577 -75.290364 4.451957 -5.440004 76.834977 3.139075 -1.940860 21.454548 0.003098 0.000001 166.641125 -7.015709 -173.604639 -26.502450 -6.562456 4.921686 84.730976 -2.505773 3.695324 21.454562 -0.003108 -0.000016 7.460905 1.831098 -0.439156 4.898583 3.678909 -0.801378 4.579816 3.674157 -0.823604 10.767164 -5.349164 8.799605 8.848214 -12.339512 8.693285 -166.900508 -74.588391 -14.818743 -23.236012 54.981114 23.741891 -20.274254 -6.167941 0.505481 15.232239 3.012687 41.795782 -158.645910 73.395949 23.295393 2.254682 -50.116701 -43.111621 -35.696467 14.685096 -1.357980 10.080793 -1.176025 -15.702805 
-224.360199 90.838829 461.796814 88.143045 -1.889082 71.789284 153.181527 -9.487300 167.411010 -74.361765 4.403446 -5.765682 77.534634 3.441186 -1.719045 21.454553 0.003104 -0.000002 168.641414 -6.738905 -173.403190 -24.951403 -6.132760 4.104728 85.470569 -2.029766 3.421007 21.454560 -0.003098 -0.000017 7.492542 1.829432 -0.233303 4.968566 3.667071 -0.388578 4.649743 3.664781 -0.410740 10.710802 -5.911385 9.150276 7.874621 -12.347634 8.985579 -164.918319 -73.721954 -16.856352 -16.499712 54.922203 29.777504 -20.284175 -6.074768 0.499398 13.967887 1.666424 41.551473 -159.390592 73.525511 22.528604 -0.365585 -48.443926 -41.439413 -38.147805 15.821609 -1.491355 9.333420 0.095881 -19.880282 
-225.017807 90.676758 464.170288 87.749291 -2.168613 71.667105 149.545995 -8.785194 168.276149 -70.691099 3.996645 -5.965446 78.519732 3.657077 -1.538243 21.454551 0.003086 -0.000001 170.718010 -6.637997 -172.581163 -23.871409 -5.512092 3.287188 86.656447 -1.520210 3.401748 21.454562 -0.003106 -0.000017 7.540766 1.953531 -0.111882 5.069270 3.909990 -0.138707 4.750358 3.909219 -0.162349 10.518672 -6.476839 9.476005 6.992415 -12.386678 9.235144 -163.886810 -73.071454 -17.920400 -10.288272 54.975602 34.649556 -20.041660 -6.031263 0.493718 12.475531 -0.450744 40.410473 -159.982920 73.983441 21.913984 -2.808919 -47.305771 -38.495482 -39.529942 16.725607 -1.585728 8.549239 1.012016 -23.650954 
-225.735397 90.302643 466.731812 87.145127 -2.252247 72.036182 146.980630 -7.791997 170.266016 -64.460368 3.065703 -5.623054 79.479305 3.333953 -2.055597 21.454555 0.003092 -0.000002 172.883645 -6.605605 -172.076740 -23.509813 -4.638254 2.927578 88.298193 -1.316571 3.545007 21.454560 -0.003107 -0.000015 7.620081 2.093800 0.048680 5.234289 4.183212 0.191592 4.915261 4.184415 0.166294 10.279579 -6.648107 9.424296 6.397185 -12.369154 9.188608 -164.554393 -73.079418 -17.233937 -5.378841 55.413567 37.921227 -19.141653 -5.802239 0.468540 11.469789 -2.251140 39.151761 -160.235008 74.303620 21.651035 -4.615055 -46.327698 -34.736320 -40.347457 17.307066 -1.645317 8.510681 1.461122 -24.153912 
-226.522202 89.900818 469.415710 86.774555 -2.072943 72.490061 145.750978 -6.305101 172.169576 -55.610973 2.177019 -5.004294 79.170799 2.888724 -2.267747 21.454548 0.003092 -0.000000 175.153467 -6.638199 -172.001867 -23.474501 -4.176453 2.991713 90.016620 -1.392967 3.720829 21.454557 -0.003089 -0.000015 7.729898 2.150225 0.269424 5.462734 4.285324 0.639965 5.143688 4.289263 0.614034 9.861675 -6.695944 9.165789 6.186937 -12.088193 8.863004 -165.591803 -73.392152 -16.165907 -2.669904 56.206501 39.957665 -17.462702 -5.336901 0.420625 11.307392 -3.017103 38.312519 -160.291603 74.367837 21.592142 -6.321889 -45.231118 -30.969130 -40.308078 17.564118 -1.661020 8.699898 1.979939 -22.061052 
-227.394897 89.568687 472.169586 86.679684 -1.801441 73.065621 145.826260 -4.603099 173.844256 -44.476997 1.175736 -4.285543 77.761226 2.353843 -2.486240 21.454555 0.003098 0.000001 177.592541 -6.792011 -172.151913 -23.124073 -4.233896 3.358357 91.503218 -1.620474 4.150793 21.454558 -0.003110 -0.000018 7.810764 2.135016 0.447253 5.631065 4.245804 0.998089 5.312067 4.251894 0.972374 9.671636 -6.827388 8.848495 5.885147 -11.643147 8.453507 -166.217093 -73.426426 -15.523232 -1.620526 57.020721 40.560044 -15.514669 -4.972422 0.379391 12.291987 -1.774144 38.432737 -161.553686 74.519051 20.296092 -7.798625 -44.139251 -27.497269 -39.339946 17.427270 -1.626387 8.834778 2.665898 -19.383351 
-228.349792 89.284531 474.973511 86.711410 -1.577567 73.753578 146.913790 -3.097391 174.907553 -31.756702 0.302947 -3.987227 74.509188 1.573744 -4.365651 21.454551 0.003086 -0.000000 -179.676787 -7.089289 -172.460569 -22.064861 -4.423528 3.922018 92.502475 -1.967708 4.602162 21.454558 -0.003093 -0.000015 7.843099 2.067137 0.569990 5.699261 4.103778 1.241431 5.380350 4.111341 1.216600 9.529957 -6.896501 8.531197 5.459263 -11.096643 8.061255 -166.259809 -73.451902 -15.479253 -1.373600 58.008264 39.518815 -13.822128 -4.778306 0.354117 13.845787 0.325888 39.794933 -163.502585 74.842665 18.295082 -9.033102 -43.339271 -24.925643 -37.942425 17.213916 -1.576514 8.949696 3.250688 -17.568392 
-229.333694 88.927383 477.855591 86.670490 -1.374666 74.500650 148.372240 -2.062004 175.398261 -19.767003 -0.289767 -4.281733 71.472356 0.837306 -7.049138 21.454551 0.003093 0.000002 -176.724219 -7.427412 -172.243506 -20.657094 -4.592861 4.185623 93.370489 -2.114158 5.092256 21.454555 -0.003103 -0.000018 7.829837 1.982605 0.640489 5.673811 3.931514 1.377751 5.355008 3.939903 1.353954 9.519494 -6.761092 8.238782 5.045094 -10.668235 7.787891 -165.816202 -73.445605 -15.935094 -1.155688 58.939949 37.222144 -12.843325 -4.542288 0.332209 15.520287 1.918208 41.553419 -165.279486 74.992581 16.473122 -10.202400 -42.550958 -23.654176 -36.538165 17.150836 -1.537586 9.220606 3.230633 -17.167897 
-230.272003 88.432564 480.832703 86.428176 -1.174012 75.145441 149.159816 -1.311605 172.983529 -11.405056 0.963809 -2.250071 70.689767 -0.631194 -6.869880 21.454551 0.003087 -0.000001 -173.821894 -7.809605 -171.220603 -19.502634 -4.838953 3.874809 94.155387 -1.875762 5.596995 21.454557 -0.003102 -0.000017 7.806944 1.913657 0.680566 5.628180 3.792063 1.453716 5.309436 3.800903 1.430766 9.421250 -6.475103 8.000267 4.673687 -10.475779 7.647145 -165.460800 -73.421856 -16.300445 -0.501564 59.826884 35.355016 -12.776414 -4.663306 0.339933 16.709190 3.327133 41.876009 -166.818286 75.142394 14.895942 -11.170945 -41.911263 -22.939590 -35.773802 16.990982 -1.508884 9.560195 2.557222 -17.862632 
